<svg width="46" height="142" viewBox="0 0 46 142" fill="none" xmlns="http://www.w3.org/2000/svg">
<path d="M15.093 5.09429C15.4769 4.17521 19.5228 0.476706 20.382 0.259595C23.9406 -0.639297 27.5451 0.854333 29.0244 3.84093C29.7846 5.3756 29.8786 6.07724 30.1675 12.3582C30.3409 16.1229 30.6683 20.484 30.8955 22.0491C31.2715 24.6399 31.3914 24.9381 32.2343 25.3723C33.3851 25.9654 33.4452 26.255 32.3296 25.8324C31.3379 25.4567 31.3236 25.5616 31.9908 28.3146C32.2555 29.4068 32.4654 30.7471 32.4575 31.2932C32.4412 32.4351 32.391 32.3126 31.8151 29.7192C31.5827 28.6717 31.3316 27.8751 31.2575 27.9489C31.1831 28.0227 31.3057 29.8562 31.5299 32.023C31.8311 34.9361 31.8407 36.1302 31.5667 36.6065C31.2645 37.1314 31.2336 37.0113 31.3993 35.9581C31.5312 35.1221 31.484 34.7385 31.2665 34.8726C31.0815 34.9868 30.8411 35.9383 30.7324 36.9874C30.5528 38.723 30.4003 39.0162 29.5979 39.1698C29.4564 39.1969 29.0895 39.4332 28.7829 39.695C28.0403 40.3285 26.3681 40.5512 22.3661 40.5499C18.4853 40.5486 16.554 40.3646 16.554 39.9962C16.554 39.8512 16.3298 39.7328 16.0558 39.7328C15.7818 39.7328 15.5576 39.5749 15.5576 39.3823C15.5576 39.1897 15.4148 39.1198 15.2401 39.2274C14.7217 39.5468 13.9791 38.0412 13.6938 36.0922L13.4274 34.2719L13.2112 35.5957C12.7934 38.1528 12.9253 32.8349 13.371 29.142C13.6015 27.2307 13.7536 25.6186 13.7084 25.5597C13.6636 25.5007 13.1976 25.6738 12.6732 25.9439C12.1488 26.2143 10.8472 26.6624 9.78046 26.9398C6.98834 27.6666 5.99764 28.7869 5.49182 31.7897C5.35499 32.6012 5.35167 32.5999 5.30716 31.7136C5.18594 29.2929 6.96045 27.1939 9.57953 26.6594C11.9598 26.1739 13.8177 25.1658 14.0498 24.2338C14.1711 23.748 14.3879 19.4034 14.5324 14.5797C14.6765 9.75589 14.9289 5.48747 15.093 5.09429Z" fill="#7B7B7B"/>
<path d="M34.9865 26.8276C34.6212 26.8206 34.0981 26.6687 33.8241 26.4897C32.9121 25.8939 35.5641 26.5201 37.1397 27.2724C39.8587 28.5711 39.9437 28.9199 40.1344 39.5673C40.2921 48.3765 40.3373 48.9031 41.0477 50.2276C41.4589 50.9941 41.786 51.8132 41.775 52.0479C41.7644 52.2828 41.3532 51.6557 40.8617 50.6545C39.9716 48.8408 39.9676 48.8001 39.8022 39.5673C39.6564 31.4369 39.5621 30.1653 39.0331 29.1986C38.4243 28.0869 36.317 26.8521 34.9865 26.8276Z" fill="#7B7B7B"/>
<path d="M5.17266 37.1777C5.10291 37.9459 5.04678 37.234 5.04778 35.5957C5.04878 33.9575 5.1059 33.329 5.17431 34.1991C5.24306 35.0692 5.24207 36.4096 5.17266 37.1777Z" fill="#7B7B7B"/>
<path d="M10.4002 38.9054C10.1372 38.1772 9.92161 37.507 9.92161 37.416C9.92194 36.905 10.6373 38.4854 11.0707 39.9548L11.5756 41.6662L13.9818 42.2372C17.6231 43.1006 25.9277 43.2707 29.5119 42.5545C31.0616 42.2451 32.7408 41.7927 33.2429 41.5497C34.2808 41.047 34.3535 41.2181 33.6807 42.5777C33.4189 43.1063 32.952 44.7915 32.6431 46.3225C31.8065 50.4702 32.0795 52.0363 34.4664 56.7862C35.5677 58.9772 36.5259 61.2119 36.596 61.7523C36.6661 62.2925 36.6588 62.4742 36.5794 62.1554C36.4193 61.5137 36.3336 61.4938 34.05 61.5726C31.8959 61.6467 29.0493 62.6588 26.94 64.1005C24.6985 65.6325 23.5285 67.9182 23.5285 70.7651C23.5285 73.3688 24.3156 74.1551 27.2562 74.4881L29.3405 74.724L27.5803 74.7694C26.5391 74.7962 25.4046 74.6006 24.8021 74.2902C24.2425 74.0016 23.6603 73.89 23.5086 74.0419C23.3568 74.1938 23.1708 75.1374 23.0947 76.1386C23.0077 77.2867 22.9825 77.0729 23.0267 75.5594C23.0864 73.5071 23.016 73.1599 22.5398 73.1599C22.1379 73.1599 22.0011 73.4134 22.0476 74.0701C22.0831 74.5705 22.0469 74.7197 21.9669 74.401C21.7918 73.7034 21.8891 73.7083 20.4245 74.3183C19.7689 74.5913 18.5175 74.7965 17.644 74.7744L16.0558 74.734L18.0485 74.4454C19.1445 74.2868 20.4149 73.8778 20.8715 73.5369C21.6417 72.9617 21.7018 72.7154 21.7018 70.1425C21.7018 66.9759 21.188 65.9291 18.7822 64.1922C17.097 62.9759 12.7094 61.5763 10.5812 61.5763C8.73064 61.5763 8.71137 61.6044 8.27431 64.9577C8.05345 66.6516 7.99533 66.7892 7.96112 65.7C7.89303 63.5395 8.79241 60.6459 10.6313 57.1083C11.5775 55.288 12.5497 53.054 12.7918 52.1438L13.2322 50.489L13.0502 51.9784C12.9459 52.8339 12.2305 54.6446 11.3696 56.2329C10.545 57.7536 9.93921 59.0662 10.0226 59.1496C10.1063 59.233 11.4234 59.5438 12.9492 59.8404C16.8609 60.6006 28.6215 60.5887 32.2954 59.8208C33.7378 59.5197 34.9816 59.2092 35.0596 59.1314C35.1377 59.0537 34.506 57.5842 33.6558 55.8662C31.7956 52.1071 31.5053 50.0528 32.3113 46.352C33.3701 41.4922 33.3412 41.9297 32.577 42.3371C32.2024 42.537 30.499 42.9441 28.7915 43.242C25.2399 43.8618 18.3926 43.7033 14.3952 42.909C13.1166 42.6552 12.0488 42.4695 12.0229 42.4966C11.9967 42.5238 12.2494 43.5885 12.5849 44.8627C12.9203 46.1369 13.1897 47.7007 13.1837 48.3378C13.1767 49.0944 13.0249 48.6922 12.7466 47.1794C12.5125 45.9052 12.1149 44.1925 11.8635 43.3733L11.4062 41.884L11.2179 44.5317L11.0299 47.1794L10.9542 43.7043C10.911 41.7046 10.6755 39.6672 10.4002 38.9054Z" fill="#7B7B7B"/>
<path d="M4.16634 50.3235C4.96807 48.6843 5.07501 48.026 5.2424 43.7043L5.42806 38.9054L5.52138 42.9785C5.57286 45.2188 5.47156 47.5273 5.29654 48.1084C4.78209 49.8168 3.28556 53.1807 3.28058 52.6403C3.27792 52.3672 3.67647 51.3247 4.16634 50.3235Z" fill="#7B7B7B"/>
<path d="M34.1974 44.1236C33.8693 44.448 33.8314 44.4099 34.0114 43.9383C34.1363 43.612 34.322 43.4283 34.4243 43.5302C34.5266 43.6318 34.4246 43.8989 34.1974 44.1236Z" fill="#7B7B7B"/>
<path d="M34.8092 52.6783C34.6262 52.2441 34.4133 50.308 34.3359 48.3758L34.1954 44.8627L34.4774 47.9575C34.6322 49.6593 34.8451 51.5954 34.9503 52.26C35.1111 53.2737 35.0885 53.3409 34.8092 52.6783Z" fill="#7B7B7B"/>
<path d="M6.12052 64.4768C9.42908 55.0351 10.3421 52.0055 10.534 49.8271C10.6958 47.9936 10.7622 47.7864 10.8529 48.8342C11.0442 51.05 10.3763 53.5355 7.25105 62.2382C6.30319 64.8776 5.41178 67.7818 5.2703 68.6919C5.0325 70.22 5.00959 70.2521 4.97139 69.1103C4.94848 68.4305 5.46559 66.3454 6.12052 64.4768Z" fill="#7B7B7B"/>
<path d="M6.54596 52.266C6.47921 52.4599 6.23543 52.2173 6.00494 51.7268C5.61703 50.9024 5.62633 50.8756 6.1265 51.374C6.42408 51.6706 6.61272 52.072 6.54596 52.266Z" fill="#7B7B7B"/>
<path d="M38.7846 52.5043C38.4492 51.9787 38.4837 51.7967 38.9889 51.4286C39.7823 50.8504 40.1477 50.871 39.3815 51.4505C39.0168 51.7262 38.869 52.1296 38.9912 52.5155C39.1789 53.1069 39.1689 53.1066 38.7846 52.5043Z" fill="#7B7B7B"/>
<path d="M42.4897 58.4321C42.3459 56.9759 42.1364 55.0398 42.0238 54.1296C41.8594 52.7991 41.8816 52.6694 42.138 53.4677C42.3134 54.0138 42.523 55.9499 42.604 57.7702C42.7468 60.9871 42.7438 61.0057 42.4897 58.4321Z" fill="#7B7B7B"/>
<path d="M2.65188 57.1083C2.62996 56.3802 2.70569 55.2215 2.81993 54.5331C3.17231 52.4076 3.27859 53.3816 2.97702 55.9744C2.79004 57.5822 2.67746 57.9744 2.65188 57.1083Z" fill="#7B7B7B"/>
<path d="M37.5445 60.9018C36.4379 57.8917 35.4462 54.9875 35.3406 54.448L35.1486 53.4677L35.5266 54.4606C35.7345 55.0067 36.876 58.1342 38.063 61.4108C40.1221 67.0937 40.2194 67.4975 40.1752 70.1813C40.1217 73.4409 40.5934 79.3539 40.9341 79.6934C41.3353 80.0932 41.8106 78.9908 41.6103 78.1244C41.4286 77.3386 41.4486 77.3257 42.0022 77.8682C42.5585 78.4129 42.5575 78.5281 41.9816 80.3504C41.6492 81.4015 41.3097 82.4848 41.227 82.7578C41.1317 83.0719 41.2695 83.0183 41.6017 82.6119C42.1081 81.9923 42.1281 82.0042 42.1533 82.9428C42.1676 83.478 42.2549 83.7302 42.3469 83.5025C42.4393 83.2751 42.7262 83.0888 42.9849 83.0888C43.522 83.0888 43.6236 82.2385 43.1234 81.9304C42.9408 81.8179 42.8033 81.5485 42.8176 81.3317C42.8365 81.0474 42.8906 81.053 43.0112 81.3512C43.322 82.1191 43.7588 81.7722 44.1596 80.4391C44.3788 79.7097 44.621 79.1752 44.6973 79.2516C44.7737 79.3277 44.5675 80.2405 44.2387 81.2797C43.5306 83.5184 42.5688 84.362 41.4904 83.6911C40.6648 83.1775 40.6677 83.2106 41.2968 81.434C41.9059 79.714 41.9056 79.7576 41.3014 79.9887C40.4718 80.306 40.1955 78.8544 39.8677 72.452L39.5562 66.3752L37.5445 60.9018Z" fill="#7B7B7B"/>
<path d="M2.03846 66.7482C1.95112 66.6611 1.98764 64.7863 2.1195 62.5817C2.25168 60.3775 2.43202 58.6456 2.52003 58.7336C2.60838 58.8217 2.57184 60.6966 2.43899 62.9001C2.30615 65.1036 2.12581 66.8356 2.03846 66.7482Z" fill="#7B7B7B"/>
<path d="M44.0816 70.8098C43.9813 73.0679 42.7983 65.4803 42.8484 62.9001C42.8717 61.6918 42.9819 62.2478 43.1762 64.5549C43.3373 66.4662 43.6156 68.4619 43.7943 68.9895C43.9733 69.5174 44.1025 70.3365 44.0816 70.8098Z" fill="#7B7B7B"/>
<path d="M37.3107 73.3254C37.2479 73.1434 37.1377 70.7605 37.0659 68.03C36.9932 65.2496 37.0463 63.6481 37.1875 64.3894C37.4296 65.6626 37.5445 74.0025 37.3107 73.3254Z" fill="#7B7B7B"/>
<path d="M1.32939 69.9833C1.1899 70.0691 1.22809 69.4859 1.41408 68.6873C1.60007 67.8887 1.81262 67.2953 1.88635 67.3691C2.09226 67.5739 1.61667 69.8063 1.32939 69.9833Z" fill="#7B7B7B"/>
<path d="M7.82927 70.4222C7.7572 71.1086 7.69742 70.6281 7.69576 69.3539C7.69443 68.0797 7.75321 67.5177 7.82661 68.1055C7.90001 68.6929 7.901 69.7355 7.82927 70.4222Z" fill="#7B7B7B"/>
<path d="M10.0953 72.4255C9.9236 72.5966 8.91463 69.8688 8.92625 69.2645C8.93223 68.9494 9.22018 69.5094 9.56625 70.5086C9.91231 71.5078 10.1504 72.3706 10.0953 72.4255Z" fill="#7B7B7B"/>
<path d="M35.3446 71.6706C35.4734 71.3065 35.6641 70.5619 35.7683 70.0158C35.9264 69.189 35.9776 69.1444 36.0742 69.7487C36.138 70.1475 35.947 70.8922 35.6501 71.4035C35.3532 71.9145 35.2157 72.0347 35.3446 71.6706Z" fill="#7B7B7B"/>
<path d="M0.612346 73.6564C0.977676 72.5983 1.29385 71.4207 1.31511 71.0395C1.34666 70.4732 1.38153 70.4533 1.50641 70.9312C1.59077 71.2526 1.33072 72.4996 0.928856 73.7027C0.378869 75.3496 0.243033 76.3504 0.378537 77.752C0.493118 78.9365 0.459571 79.3128 0.286538 78.7863C-0.183741 77.3568 -0.0751375 75.6478 0.612346 73.6564Z" fill="#7B7B7B"/>
<path d="M4.72729 76.8005C4.82725 75.6173 5.02287 73.6812 5.16236 72.498C5.32111 71.149 5.45861 70.7025 5.53135 71.3012C5.59478 71.8261 5.48551 73.1788 5.28823 74.307C5.09129 75.4353 4.92988 77.0451 4.92988 77.8844C4.92988 79.0424 4.76747 79.524 4.25668 79.8808C3.69042 80.2759 3.63761 80.4927 3.92456 81.2447C4.43635 82.5864 4.33937 83.3572 3.60904 83.7467C2.62099 84.2736 1.72461 83.5402 1.1258 81.7153C0.472194 79.7242 0.487472 79.2774 1.15802 80.772C1.6097 81.7785 1.70933 81.8467 1.91724 81.2926C2.13942 80.7012 2.17297 80.6972 2.38087 81.237C2.73524 82.1568 2.6469 82.4222 2.06171 82.1982C1.68608 82.0545 1.56884 82.1346 1.6821 82.457C1.77243 82.7135 2.07998 82.9044 2.3656 82.8816C2.67812 82.8568 2.81495 83.0213 2.70934 83.2953C2.61302 83.5458 2.71798 83.7507 2.94315 83.7507C3.22445 83.7507 3.28988 83.4145 3.15205 82.6751L2.95212 81.5994L3.43103 82.4269C4.14807 83.6656 4.05309 82.5397 3.24671 80.2448C2.86909 79.1695 2.55524 77.8063 2.54926 77.2152C2.54328 76.598 2.39981 76.226 2.21216 76.3415C2.03281 76.452 2.14739 76.0419 2.46656 75.4303L3.04743 74.3183L3.439 75.2652C3.67647 75.8391 3.73791 76.7184 3.5951 77.4972C3.43668 78.3603 3.50011 78.9733 3.78872 79.3635C4.34004 80.1095 4.48019 79.7262 4.72729 76.8005Z" fill="#7B7B7B"/>
<path d="M3.66052 73.9509C3.50775 74.0449 3.69341 73.4859 4.07335 72.7088C4.45296 71.9314 4.81032 71.4072 4.86711 71.5435C4.99066 71.8404 4.05475 73.7083 3.66052 73.9509Z" fill="#7B7B7B"/>
<path d="M41.2692 73.5217C40.8278 72.874 40.4794 72.0439 40.495 71.6766C40.5186 71.1238 40.5671 71.1513 40.777 71.8361C40.9165 72.2911 41.593 73.5392 42.2805 74.6092C42.9683 75.6792 43.3745 76.4586 43.1835 76.3411C42.9833 76.2177 42.7777 76.5142 42.6977 77.0431C42.591 77.7467 42.5472 77.656 42.509 76.6516C42.4589 75.3347 42.0158 75.3257 41.6996 76.635C41.5688 77.1775 41.5339 77.1477 41.5064 76.4695C41.4881 76.0145 41.6076 75.43 41.7724 75.1705C41.977 74.8488 41.8169 74.3249 41.2692 73.5217Z" fill="#7B7B7B"/>
<path d="M9.58617 82.0959C8.70374 79.0884 7.91097 74.6678 7.96212 73.0408C7.994 72.0194 8.07504 72.2604 8.27929 73.9873C8.59713 76.6694 9.1046 79.0474 10.5397 84.5781C11.1066 86.7625 11.5573 88.8475 11.5413 89.2116C11.5254 89.5756 11.2209 88.6076 10.8648 87.0603C10.5088 85.5131 9.93324 83.2791 9.58617 82.0959Z" fill="#7B7B7B"/>
<path d="M44.4489 74.3097C44.0852 73.2562 43.796 72.2316 43.8059 72.0323C43.8352 71.4472 45.0507 74.6195 45.2663 75.8444C45.3749 76.4613 45.3108 77.4128 45.1241 77.9589C44.8083 78.8836 44.796 78.8584 44.9474 77.5882C45.0524 76.7102 44.875 75.5435 44.4489 74.3097Z" fill="#7B7B7B"/>
<path d="M36.2851 79.3635C36.2144 79.293 36.3399 77.9817 36.5641 76.4493C36.7883 74.9173 37.0231 73.9297 37.0859 74.2547C37.2141 74.9177 36.4857 79.5634 36.2851 79.3635Z" fill="#7B7B7B"/>
<path d="M22.4464 82.6612C22.3827 83.8977 22.3295 82.9729 22.3292 80.6066C22.3285 78.2402 22.381 77.2288 22.4454 78.3587C22.5102 79.4889 22.5105 81.425 22.4464 82.6612Z" fill="#7B7B7B"/>
<path d="M43.6824 79.1795C43.5764 79.4432 43.4977 79.3648 43.4818 78.9792C43.4675 78.6304 43.5459 78.4351 43.6561 78.545C43.7664 78.6549 43.7784 78.9405 43.6824 79.1795Z" fill="#7B7B7B"/>
<path d="M34.1818 86.7903C34.1679 86.551 34.5601 84.8541 35.0536 83.0196C35.5475 81.1854 35.9942 79.8175 36.047 79.98C36.0998 80.1426 35.7072 81.8394 35.1752 83.7507C34.6428 85.662 34.1958 87.0299 34.1818 86.7903Z" fill="#7B7B7B"/>
<path d="M23.1093 86.8008C23.0423 87.7626 22.9865 87.0603 22.9855 85.24C22.9848 83.4197 23.0396 82.6327 23.108 83.4912C23.1761 84.3501 23.1768 85.8394 23.1093 86.8008Z" fill="#7B7B7B"/>
<path d="M21.2714 93.4538C21.4408 93.2387 21.667 91.4145 21.7736 89.3996C21.8802 87.385 22.0389 85.7365 22.1263 85.7365C22.3548 85.7365 21.8423 95.2189 21.5178 96.9892C21.2966 98.1965 21.2701 98.0085 21.3777 95.9963C21.4634 94.3891 21.4175 93.8682 21.2475 94.5182C21.103 95.0706 20.7985 95.8153 20.571 96.173C20.2073 96.7446 20.1804 96.7496 20.3498 96.2137C20.4557 95.8785 20.6371 95.2083 20.7526 94.7244C20.8685 94.2409 21.1017 93.669 21.2714 93.4538Z" fill="#7B7B7B"/>
<path d="M33.2722 91.9162C33.1924 91.8364 33.3007 90.7777 33.5129 89.5634C33.7248 88.3488 33.9639 87.4204 34.044 87.4998C34.1237 87.5796 34.0154 88.6383 33.8035 89.853C33.5913 91.0673 33.3522 91.9956 33.2722 91.9162Z" fill="#7B7B7B"/>
<path d="M23.4454 93.565C23.3083 93.6494 23.2183 92.7046 23.2452 91.4651L23.294 89.2116L23.5285 91.0319C23.6573 92.033 24.0257 93.5677 24.3471 94.4421C24.6686 95.3168 24.8473 96.1161 24.7444 96.2187C24.6414 96.3213 24.4378 95.9781 24.292 95.4562C24.1034 94.781 23.9702 95.6541 23.831 98.4785L23.6357 102.45L23.665 97.9308C23.6813 95.4449 23.5826 93.4803 23.4454 93.565Z" fill="#7B7B7B"/>
<path d="M11.7921 91.1146C11.7001 91.3423 11.6247 91.156 11.6247 90.7009C11.6247 90.2458 11.7001 90.0598 11.7921 90.2872C11.8844 90.5149 11.8844 90.8872 11.7921 91.1146Z" fill="#7B7B7B"/>
<path d="M12.269 94.6724C12.0774 93.8533 11.9349 92.8108 11.9522 92.3557C12.0236 90.4792 12.9047 96.0926 13.0432 99.3059L13.193 102.781L12.9054 99.4714C12.7469 97.6511 12.4607 95.4916 12.269 94.6724Z" fill="#7B7B7B"/>
<path d="M33.0566 93.9278C32.9732 94.2462 32.9048 93.9857 32.9048 93.3486C32.9048 92.7115 32.9732 92.451 33.0566 92.7694C33.1403 93.0878 33.1403 93.6094 33.0566 93.9278Z" fill="#7B7B7B"/>
<path d="M32.2409 109.833C31.9443 111.167 32.0234 98.8508 32.3273 96.41C32.4462 95.4545 32.6245 94.6724 32.7235 94.6724C32.8221 94.6724 32.7916 95.3797 32.6551 96.2445C32.5186 97.1093 32.4243 100.274 32.4458 103.277C32.4671 106.281 32.3751 109.231 32.2409 109.833Z" fill="#7B7B7B"/>
<path d="M21.4448 115.027C21.0565 109.376 21.0525 107.51 21.4179 102.616C21.6723 99.2046 21.7135 99.0329 21.8141 100.961C21.8759 102.144 21.7407 104.334 21.5139 105.828C21.1954 107.924 21.1887 109.07 21.4846 110.855C21.6955 112.128 21.8443 114.629 21.8154 116.414L21.7629 119.66L21.4448 115.027Z" fill="#7B7B7B"/>
<path d="M12.8064 105.842C12.7303 106.343 12.6682 105.933 12.6682 104.932C12.6682 103.931 12.7303 103.522 12.8064 104.022C12.8824 104.523 12.8824 105.342 12.8064 105.842Z" fill="#7B7B7B"/>
<path d="M23.8719 106.587C23.7194 106.132 23.58 105.251 23.5617 104.629C23.5125 102.952 23.7434 103.512 23.9596 105.594C24.0818 106.769 24.0506 107.121 23.8719 106.587Z" fill="#7B7B7B"/>
<path d="M24.7517 105.987C24.6457 106.251 24.567 106.173 24.5511 105.787C24.5368 105.438 24.6152 105.243 24.7254 105.353C24.8357 105.463 24.8477 105.748 24.7517 105.987Z" fill="#7B7B7B"/>
<path d="M13.1448 111.469C13.0764 112.334 13.0203 111.626 13.0203 109.897C13.0203 108.167 13.0764 107.46 13.1448 108.325C13.2132 109.189 13.2132 110.604 13.1448 111.469Z" fill="#7B7B7B"/>
<path d="M23.9466 110.755C23.8553 110.664 23.8845 109.898 24.0117 109.054C24.1386 108.21 24.3173 107.594 24.4086 107.685C24.4999 107.776 24.4707 108.541 24.3438 109.385C24.2166 110.229 24.0379 110.846 23.9466 110.755Z" fill="#7B7B7B"/>
<path d="M23.4714 119.495C23.1731 117.527 23.1459 114.658 23.4076 112.756C23.5238 111.912 23.6357 111.221 23.6567 111.221C23.6776 111.221 23.6952 113.417 23.6959 116.102C23.6965 119.058 23.6079 120.396 23.4714 119.495Z" fill="#7B7B7B"/>
<path d="M31.9985 119.205C32.0895 118.591 32.1954 116.506 32.234 114.572L32.3047 111.055L32.4113 114.607C32.4701 116.56 32.3641 118.645 32.1758 119.24L31.8337 120.322L31.9985 119.205Z" fill="#7B7B7B"/>
<path d="M13.0601 119.39C12.7898 118.15 12.5905 116.213 12.6174 115.088C12.6646 113.116 12.6752 113.144 12.908 115.854C13.181 119.037 13.2644 119.431 14.5958 123.834C15.1249 125.583 15.5483 127.222 15.5367 127.474C15.5062 128.141 13.638 122.043 13.0601 119.39Z" fill="#7B7B7B"/>
<path d="M20.5766 126.633C20.5564 126.099 20.7188 124.312 20.9376 122.661C21.1568 121.01 21.3797 119.883 21.4331 120.157C21.4866 120.43 21.3242 122.217 21.0725 124.128C20.8204 126.039 20.5972 127.166 20.5766 126.633Z" fill="#7B7B7B"/>
<path d="M31.7261 121.212C31.6202 121.475 31.5415 121.397 31.5255 121.011C31.5113 120.663 31.5896 120.467 31.6999 120.577C31.8102 120.687 31.8221 120.973 31.7261 121.212Z" fill="#7B7B7B"/>
<path d="M24.1758 124.128C24.0296 123.309 23.9161 122.266 23.9234 121.811C23.932 121.293 24.0396 121.479 24.2116 122.308C24.3628 123.036 24.4763 124.078 24.464 124.625C24.4474 125.369 24.375 125.245 24.1758 124.128Z" fill="#7B7B7B"/>
<path d="M30.9679 123.929C30.2084 126.331 29.9662 126.09 30.68 123.643C30.9819 122.608 31.3014 121.835 31.39 121.923C31.479 122.012 31.2891 122.914 30.9679 123.929Z" fill="#7B7B7B"/>
<path d="M23.9865 137.715C24.1017 135.976 24.3073 132.543 24.4435 130.085C24.6663 126.063 24.7009 125.881 24.7925 128.265C24.8483 129.721 24.7361 132.371 24.5434 134.153C24.0838 138.4 24.0997 140.782 24.5913 141.272C25.3558 142.034 26.7537 141.698 28.4804 140.338C30.6903 138.597 30.7617 137.597 28.6763 137.593C27.8081 137.591 28.7328 129.181 29.8812 126.633C30.1542 126.027 30.1698 126.044 30.0191 126.776C28.208 135.562 28.1698 136.797 29.6906 137.373C31.1805 137.938 30.7304 139.092 28.2964 140.95C26.7497 142.13 25.2239 142.318 24.3405 141.438C23.8569 140.956 23.8068 140.429 23.9865 137.715Z" fill="#7B7B7B"/>
<path d="M20.4421 129.502C20.3627 129.914 20.2946 129.655 20.291 128.927C20.2873 128.199 20.3524 127.862 20.4355 128.178C20.5185 128.495 20.5215 129.091 20.4421 129.502Z" fill="#7B7B7B"/>
<path d="M15.7845 128.824C15.6785 129.088 15.5998 129.009 15.5839 128.624C15.5696 128.275 15.648 128.079 15.7582 128.189C15.8685 128.299 15.8805 128.585 15.7845 128.824Z" fill="#7B7B7B"/>
<path d="M16.3683 132.568C16.1213 131.475 15.9276 130.284 15.9383 129.92C15.9489 129.556 16.1601 130.152 16.4075 131.244C16.6546 132.336 16.8483 133.527 16.8376 133.891C16.827 134.255 16.6158 133.66 16.3683 132.568Z" fill="#7B7B7B"/>
<path d="M20.7819 133.636C20.7098 134.322 20.65 133.842 20.6484 132.568C20.647 131.293 20.7058 130.731 20.7792 131.319C20.8526 131.907 20.8536 132.949 20.7819 133.636Z" fill="#7B7B7B"/>
<path d="M16.554 136.36C16.554 136.033 16.6473 135.524 16.7612 135.228C17.0694 134.427 17.1282 134.725 16.9662 136.268C16.8732 137.152 16.6792 137.598 16.4288 137.502C16.2132 137.419 15.7715 137.545 15.4471 137.782C14.5832 138.411 15.0316 139.178 17.1455 140.686C18.1585 141.409 18.8327 142 18.644 142C18.1352 142 14.9964 139.435 14.7629 138.829C14.4288 137.961 14.5191 137.795 15.5576 137.367C16.1418 137.125 16.554 136.709 16.554 136.36Z" fill="#7B7B7B"/>
<path d="M21.1206 139.798C20.9838 139.713 20.8938 138.573 20.9213 137.264C20.9722 134.832 21.1057 135.202 21.2747 138.246C21.3269 139.184 21.2575 139.883 21.1206 139.798Z" fill="#7B7B7B"/>
<path d="M19.8307 141.761C20.278 141.677 20.6965 141.308 20.8021 140.905C20.9061 140.509 21.0496 140.381 21.1273 140.613C21.3368 141.239 20.551 142.006 19.7516 141.955C19.113 141.914 19.1206 141.895 19.8307 141.761Z" fill="#7B7B7B"/>
</svg>
