<svg width="24" height="24" viewBox="0 0 24 24" fill="none" xmlns="http://www.w3.org/2000/svg">
<path d="M17.5 1H6.5C6.10231 1.00044 5.72103 1.15861 5.43982 1.43982C5.15861 1.72103 5.00044 2.10231 5 2.5V21.5C5.00044 21.8977 5.15861 22.279 5.43982 22.5602C5.72103 22.8414 6.10231 22.9996 6.5 23H17.5C17.8977 22.9996 18.279 22.8414 18.5602 22.5602C18.8414 22.279 18.9996 21.8977 19 21.5V2.5C18.9996 2.10231 18.8414 1.72103 18.5602 1.43982C18.279 1.15861 17.8977 1.00044 17.5 1ZM18 21.5C17.9998 21.6326 17.9471 21.7596 17.8534 21.8534C17.7596 21.9471 17.6326 21.9998 17.5 22H6.5C6.36744 21.9998 6.24037 21.9471 6.14664 21.8534C6.05291 21.7596 6.00017 21.6326 6 21.5V2.5C6.00017 2.36744 6.05291 2.24037 6.14664 2.14664C6.24037 2.05291 6.36744 2.00017 6.5 2H17.5C17.6326 2.00017 17.7596 2.05291 17.8534 2.14664C17.9471 2.24037 17.9998 2.36744 18 2.5V21.5Z" fill="#010101"/>
<path d="M16.5 3H7.5C7.36739 3 7.24021 3.05268 7.14645 3.14645C7.05268 3.24021 7 3.36739 7 3.5V10.5C7 10.6326 7.05268 10.7598 7.14645 10.8536C7.24021 10.9473 7.36739 11 7.5 11H16.5C16.6326 11 16.7598 10.9473 16.8536 10.8536C16.9473 10.7598 17 10.6326 17 10.5V3.5C17 3.36739 16.9473 3.24021 16.8536 3.14645C16.7598 3.05268 16.6326 3 16.5 3ZM16 10H8V4H16V10Z" fill="#010101"/>
<path d="M9 12.5H8C7.72386 12.5 7.5 12.7239 7.5 13V14C7.5 14.2761 7.72386 14.5 8 14.5H9C9.27614 14.5 9.5 14.2761 9.5 14V13C9.5 12.7239 9.27614 12.5 9 12.5Z" fill="#010101"/>
<path d="M9 15.5H8C7.72386 15.5 7.5 15.7239 7.5 16V17C7.5 17.2761 7.72386 17.5 8 17.5H9C9.27614 17.5 9.5 17.2761 9.5 17V16C9.5 15.7239 9.27614 15.5 9 15.5Z" fill="#010101"/>
<path d="M9 18.5H8C7.72386 18.5 7.5 18.7239 7.5 19V20C7.5 20.2761 7.72386 20.5 8 20.5H9C9.27614 20.5 9.5 20.2761 9.5 20V19C9.5 18.7239 9.27614 18.5 9 18.5Z" fill="#010101"/>
<path d="M16 12.5H15C14.7239 12.5 14.5 12.7239 14.5 13V14C14.5 14.2761 14.7239 14.5 15 14.5H16C16.2761 14.5 16.5 14.2761 16.5 14V13C16.5 12.7239 16.2761 12.5 16 12.5Z" fill="#010101"/>
<path d="M16 15.5H15C14.7239 15.5 14.5 15.7239 14.5 16V17C14.5 17.2761 14.7239 17.5 15 17.5H16C16.2761 17.5 16.5 17.2761 16.5 17V16C16.5 15.7239 16.2761 15.5 16 15.5Z" fill="#010101"/>
<path d="M16 18.5H15C14.7239 18.5 14.5 18.7239 14.5 19V20C14.5 20.2761 14.7239 20.5 15 20.5H16C16.2761 20.5 16.5 20.2761 16.5 20V19C16.5 18.7239 16.2761 18.5 16 18.5Z" fill="#010101"/>
<path d="M12.5 12.5H11.5C11.2239 12.5 11 12.7239 11 13V14C11 14.2761 11.2239 14.5 11.5 14.5H12.5C12.7761 14.5 13 14.2761 13 14V13C13 12.7239 12.7761 12.5 12.5 12.5Z" fill="#010101"/>
<path d="M12.5 15.5H11.5C11.2239 15.5 11 15.7239 11 16V17C11 17.2761 11.2239 17.5 11.5 17.5H12.5C12.7761 17.5 13 17.2761 13 17V16C13 15.7239 12.7761 15.5 12.5 15.5Z" fill="#010101"/>
<path d="M12.5 18.5H11.5C11.2239 18.5 11 18.7239 11 19V20C11 20.2761 11.2239 20.5 11.5 20.5H12.5C12.7761 20.5 13 20.2761 13 20V19C13 18.7239 12.7761 18.5 12.5 18.5Z" fill="#010101"/>
</svg>
