<svg width="24" height="24" viewBox="0 0 24 24" fill="none" xmlns="http://www.w3.org/2000/svg">
<path d="M11.8203 6C12.9249 6 13.8203 5.10457 13.8203 4C13.8203 2.89543 12.9249 2 11.8203 2C10.7157 2 9.82031 2.89543 9.82031 4C9.82031 5.10457 10.7157 6 11.8203 6Z" fill="#010101"/>
<path d="M15.7103 8.11C15.3203 7.72 14.6503 7 13.3503 7C13.1403 7 11.9303 7 10.8103 7C8.06031 6.99 5.82031 4.75 5.82031 2H3.82031C3.82031 5.16 5.93031 7.84 8.82031 8.71V22H10.8203V16H12.8203V22H14.8203V10.05L18.7703 14L20.1803 12.59L15.7103 8.11Z" fill="#010101"/>
</svg>
