<svg width="145" height="130" viewBox="0 0 145 130" fill="none" xmlns="http://www.w3.org/2000/svg">
<g opacity="0.5">
<path d="M20.2302 64.4716L88.1539 25.4453L20.2302 64.4716Z" fill="white"/>
<path d="M20.2302 64.4716L88.1539 25.4453" stroke="#DEC4FD" stroke-width="16.7039" stroke-linecap="round"/>
</g>
<g opacity="0.5">
<path d="M36.387 90.068L104.311 51.0417L36.387 90.068Z" fill="white"/>
<path d="M36.387 90.068L104.311 51.0417" stroke="#DEC4FD" stroke-width="16.7039" stroke-linecap="round"/>
</g>
<g opacity="0.5">
<path d="M121.709 41.2347L127.003 38.1531L121.709 41.2347Z" fill="white"/>
<path d="M121.709 41.2347L127.003 38.1531" stroke="#FDC8F5" stroke-width="16.7039" stroke-linecap="round"/>
</g>
<g opacity="0.5">
<path d="M60.3496 111.126L111.935 80.9956L60.3496 111.126Z" fill="white"/>
<path d="M60.3496 111.126L111.935 80.9956" stroke="#DEC4FD" stroke-width="16.7039" stroke-linecap="round"/>
</g>
<path d="M124.671 83.5673C125.498 83.6481 126.103 84.3849 126.023 85.2116C125.942 86.0383 125.205 86.644 124.378 86.5632C123.552 86.4824 122.946 85.7456 123.027 84.9188C123.107 84.0921 123.844 83.4865 124.671 83.5673Z" stroke="#FDC8F5" stroke-width="0.777621"/>
<path d="M37.0868 114.848C38.4463 114.981 39.4422 116.193 39.3094 117.552C39.1765 118.912 37.9648 119.908 36.6054 119.775C35.2459 119.642 34.2499 118.43 34.3828 117.071C34.5157 115.711 35.7273 114.715 37.0868 114.848Z" stroke="#FE96ED" stroke-width="1.27874"/>
<path d="M71.0495 13.1509C72.4089 13.2837 73.4049 14.4954 73.272 15.8549C73.1391 17.2144 71.9275 18.2103 70.568 18.0774C69.2085 17.9446 68.2126 16.7329 68.3455 15.3734C68.4783 14.0139 69.69 13.018 71.0495 13.1509Z" stroke="#FDC8F5" stroke-width="1.27874"/>
<path d="M14.1065 45.3657C14.7306 45.3657 15.2372 45.8724 15.2372 46.4964C15.2372 47.1205 14.7306 47.6271 14.1065 47.6271C13.4825 47.6271 12.9758 47.1205 12.9758 46.4964C12.9758 45.8724 13.4825 45.3657 14.1065 45.3657Z" stroke="#FE96ED" stroke-width="0.934711"/>
<path d="M101.927 119.102C102.551 119.102 103.058 119.608 103.058 120.232C103.058 120.856 102.551 121.363 101.927 121.363C101.303 121.363 100.797 120.856 100.797 120.232C100.797 119.608 101.303 119.102 101.927 119.102Z" stroke="#FE96ED" stroke-width="0.934711"/>
<path d="M115.186 12.8604L115.757 8.35792" stroke="#FE96ED" stroke-width="0.54461"/>
<path d="M113.296 10.3428L117.799 10.9132" stroke="#FE96ED" stroke-width="0.54461"/>
<path d="M19.072 86.938L19.4412 82.4146" stroke="#FE96ED" stroke-width="0.54461"/>
<path d="M17.0718 84.5073L21.5952 84.8765" stroke="#FE96ED" stroke-width="0.54461"/>
<path d="M113.457 106.552L113.49 102.014" stroke="#FE96ED" stroke-width="0.54461"/>
<path d="M111.282 104.276L115.821 104.31" stroke="#FE96ED" stroke-width="0.54461"/>
<path d="M72.2717 32.1826C90.2809 32.1826 104.903 46.8047 104.903 64.8139C104.903 82.8231 90.2809 97.4452 72.2717 97.4452C54.2625 97.4452 39.6404 82.8231 39.6404 64.8139C39.6404 46.8047 54.2625 32.1826 72.2717 32.1826Z" fill="#FE96ED"/>
<path d="M72.2516 35.2686C88.5575 35.2686 101.797 48.5077 101.797 64.8136C101.797 81.1195 88.5575 94.3586 72.2516 94.3586C55.9457 94.3586 42.7065 81.1195 42.7065 64.8136C42.7065 48.5077 55.9457 35.2686 72.2516 35.2686Z" fill="#010101"/>
<path d="M58.9084 65.8973L66.8961 73.7034L85.5943 55.0051" stroke="white" stroke-width="3.26766"/>
</svg>
