<svg width="44" height="142" viewBox="0 0 44 142" fill="none" xmlns="http://www.w3.org/2000/svg">
<path fill-rule="evenodd" clip-rule="evenodd" d="M18.2522 0.732991C16.2689 1.68165 14.9402 3.15624 14.4592 4.94274C14.2664 5.6592 13.9667 8.22798 13.7937 10.6506C13.6204 13.0735 13.2645 16.9085 13.0025 19.1733C12.7405 21.4377 12.6069 23.6996 12.7055 24.1994C12.8662 25.0144 12.7359 25.1755 11.4406 25.7633C10.6464 26.1238 9.80062 26.4218 9.56147 26.4258C9.32233 26.4298 8.39781 26.7466 7.50671 27.13C6.22331 27.6821 5.74634 28.1164 5.21247 29.2192C4.842 29.9849 4.55721 31.1969 4.58003 31.9127C4.6184 33.124 4.63891 33.0935 4.87508 31.4737C5.29086 28.6218 6.25937 27.6354 9.4983 26.7638C10.316 26.5439 11.5646 26.0686 12.2728 25.707L13.5605 25.0501L13.3912 27.4783C13.2192 29.9485 13.0816 30.4113 11.046 35.3639L9.89026 38.1755L10.1393 43.3025C10.3742 48.1364 10.3927 48.2403 10.4638 45.1218L10.5392 41.814L11.0364 43.1371C11.3096 43.8648 11.7439 45.4277 12.0009 46.6102C12.4538 48.6928 12.463 48.706 12.298 47.0386C12.2044 46.0916 11.9153 44.7149 11.6556 43.9789C11.1201 42.4617 11.1389 42.4448 12.5493 43.1745C13.9247 43.8857 15.9255 43.5946 18.8135 42.2635C21.3952 41.0734 22.3402 41.1029 25.2123 42.4613C27.7414 43.6578 29.5405 43.8341 31.0703 43.0356C31.7454 42.683 32.3782 42.4749 32.4761 42.5728C32.574 42.6711 32.6786 43.4335 32.708 44.2674C32.753 45.5415 32.7999 45.4138 33.0027 43.4679C33.1353 42.1944 33.3563 40.2075 33.4942 39.0521C33.6355 37.8662 33.6153 36.8584 33.4476 36.7367C33.2842 36.6186 32.5185 35.2459 31.7458 33.6866C30.687 31.5498 30.2503 30.1797 29.9738 28.126C29.7724 26.6272 29.6831 25.325 29.7757 25.2324C29.8683 25.1398 30.5176 25.3564 31.2185 25.714C31.9194 26.0715 33.1618 26.5439 33.9795 26.7638C37.0838 27.5994 38.2223 28.682 38.6331 31.1896C38.8428 32.4697 38.8587 32.4862 38.8977 31.4608C38.988 29.0753 37.4142 27.4403 34.0814 26.4572L31.7044 25.7563L31.2023 24.0274C29.8958 19.5298 29.6305 17.7139 29.3798 11.5483C29.1512 5.93208 29.0258 4.91959 28.4106 3.71657C28.0219 2.95645 27.4031 2.23933 27.0349 2.12257C26.6671 2.00581 25.9119 1.52784 25.3566 1.06046C23.8456 -0.210705 20.5435 -0.36286 18.2522 0.732991ZM26.6075 8.27561C27.018 9.27256 27.363 10.8623 27.3902 11.8791C27.4169 12.8796 27.5069 13.4377 27.5899 13.1195C27.7537 12.4936 28.3544 12.3157 28.3544 12.8932C28.3544 13.087 28.1896 13.5538 27.9882 13.9302C27.6941 14.4793 27.5641 14.5239 27.3316 14.1564C27.111 13.8085 27.0402 13.8634 27.0362 14.3866C27.0336 14.7651 26.6641 15.7997 26.2156 16.6855C25.767 17.5717 25.4693 18.3658 25.554 18.4509C25.6387 18.5355 25.7082 18.431 25.7082 18.219C25.7082 18.0066 25.8296 17.833 25.9781 17.833C26.3191 17.833 25.8947 21.2882 25.3814 22.6924C25.169 23.2729 25.0612 24.0915 25.1416 24.5116C25.2613 25.1394 25.2964 25.0987 25.3374 24.283C25.3648 23.7373 25.5299 23.0675 25.7039 22.7946C25.9741 22.3708 26.0925 22.401 26.5143 22.9997C26.7862 23.385 27.542 23.9539 28.1939 24.2632C29.3764 24.8245 29.3794 24.8311 29.3255 26.87C29.2957 27.994 29.1307 29.5837 28.9583 30.4024C28.577 32.2176 26.4388 36.4833 24.6117 39.0739C23.3405 40.8766 23.184 40.9871 21.8987 40.9871C20.8488 40.9871 20.3662 40.7929 19.8002 40.142C18.2142 38.3178 16.7475 36.0315 15.5614 33.5341C14.4688 31.2336 14.3064 30.5648 14.1999 27.9331L14.0788 24.9446L15.4463 24.1798C16.1984 23.7594 16.8957 23.2014 16.9963 22.9394C17.2781 22.2055 17.6753 22.3742 17.9152 23.3298C18.0349 23.8061 18.1943 24.1339 18.2697 24.0585C18.3452 23.9834 18.1907 23.1098 17.9267 22.1175C17.3882 20.0945 17.2801 17.696 17.7402 17.9802C17.9059 18.0827 17.7736 17.6077 17.4461 16.9247C16.5735 15.1048 16.0208 12.0107 16.2705 10.3449C16.5385 8.56008 16.9318 8.27826 21.2642 6.76894C25.1492 5.41575 25.468 5.50539 26.6075 8.27561ZM19.0927 10.2252C19.3656 10.4015 19.7377 10.5457 19.9196 10.5457C20.1016 10.5457 20.0271 10.4015 19.7542 10.2252C19.4814 10.0489 19.1092 9.90467 18.9273 9.90467C18.7454 9.90467 18.8198 10.0489 19.0927 10.2252ZM23.7235 10.2252C23.4506 10.4015 23.3762 10.5457 23.5581 10.5457C23.7401 10.5457 24.1122 10.4015 24.3851 10.2252C24.658 10.0489 24.7324 9.90467 24.5505 9.90467C24.3685 9.90467 23.9964 10.0489 23.7235 10.2252ZM17.5695 11.2737C17.4058 11.5387 17.5152 11.5896 17.9175 11.4355C18.3541 11.2678 18.4556 11.3382 18.3131 11.71C18.0825 12.3101 18.2463 12.3319 19.1896 11.8271C19.8885 11.453 19.8902 11.4385 19.2508 11.1887C18.2939 10.815 17.8387 10.8381 17.5695 11.2737ZM24.2299 11.201C24.1231 11.3736 24.3378 11.6766 24.7066 11.8741C25.2785 12.1801 25.3774 12.1338 25.3774 11.5599C25.3774 10.8758 24.5842 10.6277 24.2299 11.201ZM16.1055 14.0291C16.1055 14.5768 16.0506 14.6053 15.785 14.1945C15.6087 13.9216 15.4645 13.4006 15.4645 13.0368C15.4645 12.489 15.5194 12.4606 15.785 12.8714C15.9613 13.1443 16.1055 13.6652 16.1055 14.0291ZM28.5836 17.4132C28.4996 17.7351 28.4255 17.5518 28.4189 17.006C28.4122 16.4603 28.4807 16.197 28.5713 16.4209C28.662 16.6448 28.6676 17.0914 28.5836 17.4132ZM19.3302 19.4938C19.9157 20.108 20.4505 20.544 20.519 20.4623C20.5875 20.3806 20.1085 19.8781 19.4546 19.3456L18.2658 18.3771L19.3302 19.4938ZM24.5339 18.8521C24.4122 19.0489 23.8453 19.4948 23.274 19.8431C22.7024 20.1917 22.3611 20.4772 22.5149 20.4778C23.012 20.4802 24.69 19.3694 24.8604 18.9255C25.0605 18.4039 24.8412 18.3546 24.5339 18.8521ZM21.3463 20.7051C21.5848 20.8007 21.8702 20.7888 21.98 20.6789C22.0898 20.5691 21.8947 20.4911 21.546 20.5053C21.1607 20.5212 21.0823 20.5996 21.3463 20.7051ZM15.6834 22.7056C15.5994 23.0274 15.5253 22.8442 15.5187 22.2984C15.5121 21.7526 15.5806 21.4893 15.6712 21.7133C15.7618 21.9372 15.7674 22.3838 15.6834 22.7056ZM23.7536 23.4862C23.53 24.2328 23.4076 24.9046 23.4821 24.979C23.5565 25.0534 23.8006 24.5033 24.0242 23.7568C24.2478 23.0102 24.3702 22.3384 24.2958 22.264C24.2213 22.1896 23.9772 22.7397 23.7536 23.4862ZM19.1178 22.7946C19.1205 23.0675 19.3328 23.7373 19.5902 24.283L20.0579 25.2754L19.8614 24.283C19.6157 23.0407 19.1102 22.0295 19.1178 22.7946ZM14.5426 26.9547C14.6514 27.0635 15.2911 27.2769 15.9646 27.4287C16.638 27.5805 17.0591 27.5871 16.9003 27.4436C16.5653 27.1396 14.2472 26.6593 14.5426 26.9547ZM21.2851 27.3566C21.1961 27.5008 21.4137 27.6407 21.769 27.6675C22.1242 27.6943 22.3283 27.5762 22.2228 27.4052C21.9883 27.0262 21.505 27.001 21.2851 27.3566ZM26.5374 27.7525C26.4216 27.9397 26.5543 27.9953 26.8487 27.8825C27.4216 27.6626 27.5264 27.4254 27.0508 27.4254C26.8794 27.4254 26.6486 27.5726 26.5374 27.7525ZM39.0582 35.6947C39.0582 37.423 39.1141 38.1299 39.1822 37.2659C39.2504 36.4019 39.2504 34.9875 39.1822 34.1236C39.1141 33.2596 39.0582 33.9664 39.0582 35.6947ZM4.29788 35.0332C4.29788 35.8518 4.36238 36.1866 4.44144 35.7774C4.52016 35.3682 4.52016 34.6981 4.44144 34.2889C4.36238 33.8798 4.29788 34.2145 4.29788 35.0332ZM33.696 35.5846C33.4502 35.8508 33.3176 36.1373 33.401 36.2207C33.4843 36.304 33.7436 36.1419 33.9775 35.8601C34.5296 35.1949 34.2805 34.9508 33.696 35.5846ZM4.60749 42.4756C4.56482 45.2045 4.45301 47.8093 4.35941 48.2641L4.18939 49.091L4.53769 48.2955C4.7474 47.8166 4.8463 45.5114 4.78577 42.507L4.68555 37.514L4.60749 42.4756ZM38.7353 43.7987C38.7764 48.0683 38.8485 48.5764 39.6585 50.3109C40.6981 52.536 41.1589 54.5901 41.574 58.8515L41.8803 61.9912L41.7447 58.8131C41.5793 54.9345 41.1821 53.0031 40.0168 50.4141C39.2365 48.6799 39.0962 47.845 38.9073 43.7987L38.6907 39.1678L38.7353 43.7987ZM31.6621 44.6256C31.4391 45.5547 31.3224 46.381 31.4031 46.4614C31.4835 46.5418 31.7259 45.8415 31.9419 44.9054C32.1579 43.9693 32.2747 43.1434 32.2012 43.0696C32.1275 42.9962 31.885 43.6965 31.6621 44.6256ZM33.0245 46.941C32.9554 49.0874 34.0007 53.918 35.339 57.6359C36.0703 59.6675 37.056 62.4444 37.5293 63.8065C38.003 65.1689 38.4449 66.1199 38.5114 65.9201C38.5782 65.7203 37.9673 63.8353 37.1542 61.7315C34.9933 56.1405 34.1058 53.1 33.6573 49.7526C33.135 45.8554 33.0689 45.563 33.0245 46.941ZM31.0839 48.0987C31.0875 48.8264 31.1553 49.0851 31.2344 48.6736C31.3135 48.2621 31.3105 47.6667 31.2278 47.3505C31.1451 47.0343 31.0803 47.371 31.0839 48.0987ZM9.92103 49.918C9.92103 50.7366 9.98553 51.0717 10.0646 50.6622C10.1433 50.2527 10.1433 49.5832 10.0646 49.1737C9.98553 48.7642 9.92103 49.0993 9.92103 49.918ZM12.5417 49.7526C12.5484 50.2984 12.6225 50.4816 12.7065 50.1598C12.7905 49.8379 12.7849 49.3914 12.6942 49.1674C12.6036 48.9435 12.5351 49.2068 12.5417 49.7526ZM3.21295 50.9831C2.79816 51.9436 2.41181 53.3994 2.35393 54.218L2.24907 55.7065L2.53387 54.1754C2.69032 53.3329 3.1329 51.933 3.51726 51.0644C3.90161 50.1958 4.15995 49.4291 4.09148 49.3606C4.02334 49.2921 3.62774 50.0222 3.21295 50.9831ZM31.1567 51.3377C31.2579 52.8347 31.6191 53.8687 32.8072 56.0667C33.6437 57.6137 34.2319 59.0357 34.1138 59.2269C33.9957 59.4178 33.4701 59.5111 32.9461 59.434C32.4219 59.3572 31.9929 59.3956 31.9929 59.5193C31.9929 60.5163 18.3604 60.8543 13.1143 59.9874C11.3996 59.7042 9.80889 59.4105 9.57967 59.3351C9.2909 59.2398 9.62796 58.2769 10.6775 56.1994C11.5104 54.5501 12.254 52.6482 12.3297 51.9727L12.467 50.7449L12.1481 51.977C11.9728 52.6548 10.9954 54.8726 9.9756 56.9056C8.0634 60.7187 7.16767 63.8389 7.23415 66.4566C7.26624 67.7195 7.31123 67.6081 7.53086 65.721C7.82095 63.2329 8.16263 61.495 8.36209 61.495C8.43486 61.495 9.13015 61.7441 9.90713 62.0484C14.9564 64.0264 19.9358 69.0539 20.9381 73.1859C21.2235 74.3624 21.3605 74.6095 21.38 73.9817C21.4078 73.082 22.3885 72.6103 22.4114 73.4856C22.4173 73.7131 22.6832 73.1432 23.0024 72.2197C24.2574 68.5901 27.8016 64.9605 32.2638 62.7361C35.2179 61.2632 35.5679 61.3058 35.6648 63.1489C35.6949 63.7215 35.7547 63.7966 35.8603 63.3927C36.0951 62.492 35.0552 59.6516 33.268 56.3112C32.2297 54.3705 31.5334 52.5823 31.3356 51.3496L31.0267 49.4218L31.1567 51.3377ZM8.95219 54.1509C8.55989 55.5524 7.47463 58.7622 6.54085 61.284C5.60675 63.8058 4.62568 66.8059 4.36007 67.9507C3.91551 69.8669 3.92808 70.239 4.51487 72.6272C4.86549 74.0545 5.16318 74.8728 5.17642 74.4461C5.18932 74.0194 4.97034 72.8796 4.68952 71.9137C4.23272 70.3419 4.2314 69.9317 4.67629 68.0132C4.94984 66.8337 5.90908 63.8802 6.80779 61.4494C8.72495 56.2655 9.9369 52.3793 9.77846 51.9254C9.71628 51.7481 9.34449 52.7494 8.95219 54.1509ZM1.9871 57.3604C1.98975 58.27 2.05392 58.6027 2.12999 58.1C2.20574 57.5972 2.20376 56.853 2.12536 56.4461C2.04697 56.0393 1.98478 56.4507 1.9871 57.3604ZM1.40362 62.66C1.27197 64.5901 1.23558 66.2406 1.32258 66.3276C1.40957 66.4146 1.58852 64.9066 1.71984 62.9762C1.85148 61.0462 1.88787 59.3956 1.80087 59.3086C1.71388 59.2216 1.53493 60.7296 1.40362 62.66ZM42.006 63.4797C42.006 64.2983 42.0705 64.6334 42.1496 64.2239C42.2283 63.8144 42.2283 63.1449 42.1496 62.7354C42.0705 62.3259 42.006 62.661 42.006 63.4797ZM36.0521 65.4643C36.0521 66.283 36.1166 66.618 36.1957 66.2085C36.2744 65.7991 36.2744 65.1296 36.1957 64.7201C36.1166 64.3106 36.0521 64.6456 36.0521 65.4643ZM42.3027 68.731C42.2624 71.2204 42.4377 72.9758 42.9411 75.1209C43.3232 76.7473 43.7036 78.0102 43.7866 77.9272C43.8696 77.8442 43.6807 76.8293 43.3665 75.6723C43.0523 74.5149 42.697 71.7077 42.5769 69.4336L42.359 65.2989L42.3027 68.731ZM38.6646 66.7874C38.6698 67.0603 38.7936 67.6557 38.9391 68.1105C39.1521 68.7754 39.2057 68.8078 39.2136 68.2759C39.2189 67.912 39.0956 67.3166 38.9391 66.9528C38.7648 66.5476 38.6586 66.4834 38.6646 66.7874ZM0.968319 69.7167C0.930942 71.4186 0.663014 73.7257 0.372926 74.8437C-0.492046 78.1779 0.172478 81.1168 2.10849 82.5203C3.92312 83.8361 3.97009 83.7485 2.31258 82.1383C0.84924 80.7166 0.612075 80.2968 0.407327 78.766C0.245579 77.5567 0.340842 76.3322 0.716931 74.7967C1.08012 73.3122 1.22334 71.5889 1.14826 69.599L1.03613 66.622L0.968319 69.7167ZM36.4014 69.2682C36.4031 70.5417 36.4626 71.022 36.5344 70.3359C36.6058 69.6496 36.6048 68.6076 36.5317 68.0205C36.4586 67.4331 36.4001 67.9947 36.4014 69.2682ZM39.3109 69.9297C39.2841 70.4755 39.0436 71.7407 38.7767 72.7413C38.5098 73.7419 38.2213 75.9002 38.1363 77.5375L37.9812 80.5145L38.2905 77.7029C38.4608 76.1566 38.8376 73.9017 39.1276 72.692C39.4181 71.4827 39.5891 70.1431 39.5077 69.7151C39.3833 69.0601 39.3522 69.0939 39.3109 69.9297ZM7.20405 72.438C7.21431 73.4237 7.34794 74.8252 7.50076 75.5529C7.68963 76.4526 7.72171 75.9237 7.60098 73.899C7.40153 70.5509 7.17495 69.7171 7.20405 72.438ZM36.0567 73.2375C36.0594 74.1471 36.1236 74.4799 36.1996 73.9771C36.2754 73.4743 36.2734 72.7301 36.195 72.3232C36.1166 71.9164 36.0544 72.3279 36.0567 73.2375ZM22.2132 82.1684C22.2129 86.7165 22.2595 88.6231 22.3168 86.4049C22.3736 84.1871 22.374 80.4659 22.3171 78.1356C22.2602 75.8056 22.2132 77.6202 22.2132 82.1684ZM35.7081 76.049C35.7081 76.6858 35.7762 76.9464 35.8593 76.6279C35.9426 76.3094 35.9426 75.7887 35.8593 75.4702C35.7762 75.1517 35.7081 75.4123 35.7081 76.049ZM5.30608 77.3721C5.30608 78.5547 5.36628 79.0383 5.43938 78.4472C5.51281 77.8561 5.51281 76.8882 5.43938 76.2971C5.36628 75.706 5.30608 76.1896 5.30608 77.3721ZM21.5441 81.0107C21.5441 84.1943 21.5937 85.4969 21.6545 83.9049C21.7151 82.3132 21.7151 79.7081 21.6545 78.1164C21.5937 76.5247 21.5441 77.827 21.5441 81.0107ZM7.86262 77.515C7.84344 78.2748 9.19663 83.4094 9.37029 83.2354C9.43644 83.1693 9.12816 81.7112 8.68493 79.9955C8.24169 78.2798 7.87155 77.1634 7.86262 77.515ZM34.0208 83.7253C32.1457 92.0611 32.1996 91.7915 32.4497 91.562C32.7394 91.296 35.7018 78.0793 35.5642 77.6669C35.505 77.4892 34.8104 80.2155 34.0208 83.7253ZM3.10544 77.9235C2.77136 78.2573 2.84149 78.7611 3.19178 78.5444C3.36047 78.4402 3.57018 78.6175 3.65717 78.9384C4.12819 80.6739 4.19104 81.3414 3.88342 81.3414C3.69819 81.3414 3.54636 81.0722 3.54636 80.743C3.54636 80.4139 3.32772 79.8559 3.06079 79.5027C2.51766 78.7845 2.39097 79.0568 2.85703 79.9403C3.59367 81.3368 4.34022 83.1835 4.2691 83.4332C4.22643 83.5834 4.31211 83.6314 4.45963 83.5401C4.80231 83.3284 4.73847 82.3546 4.21221 79.7702C3.80966 77.7939 3.59433 77.4347 3.10544 77.9235ZM39.8183 78.257C39.6986 78.3767 39.6155 78.7849 39.6337 79.1639C39.6622 79.763 39.6995 79.7451 39.9188 79.026C40.1484 78.2738 40.1947 78.2553 40.4342 78.8216C40.5883 79.1864 40.5387 79.6985 40.3145 80.0577C40.1038 80.3951 39.9314 80.8962 39.9314 81.1714C39.9314 81.4469 39.8031 81.6722 39.6466 81.6722C39.4898 81.6722 39.4194 81.2627 39.4902 80.7626C39.5973 80.0041 39.5471 80.0455 39.1882 81.0107C38.9517 81.6474 38.8729 82.218 39.0132 82.2785C39.1538 82.339 39.1786 82.7482 39.0681 83.1881C38.7912 84.2913 39.4968 84.2304 41.1877 83.0055C42.7665 81.8621 43.1111 81.3113 43.3715 79.5162C43.5448 78.3234 43.518 78.3539 43.087 79.8387C42.8253 80.7407 42.2687 81.7522 41.8502 82.087C40.3789 83.2629 39.5781 83.7448 39.3966 83.5632C39.2305 83.3969 39.8484 81.7354 40.6207 80.271C40.7875 79.9552 40.9237 79.4894 40.9237 79.2364C40.9237 78.6718 40.1176 77.9576 39.8183 78.257ZM5.60774 80.6799C5.60774 81.3166 5.67588 81.5769 5.75891 81.2587C5.84226 80.9402 5.84226 80.4196 5.75891 80.101C5.67588 79.7825 5.60774 80.0431 5.60774 80.6799ZM2.58018 80.8727C2.59605 81.2581 2.67445 81.3365 2.77996 81.0728C2.87556 80.834 2.86365 80.5486 2.75383 80.4387C2.64402 80.3289 2.56595 80.5241 2.58018 80.8727ZM37.783 81.008C37.6716 81.1886 37.7324 81.5978 37.9187 81.9176C38.2094 82.4164 38.259 82.3698 38.2676 81.5895C38.2779 80.6382 38.1251 80.4546 37.783 81.008ZM9.52641 84.1805C9.54229 84.5658 9.62068 84.6442 9.7262 84.3806C9.82179 84.1417 9.80989 83.8563 9.70007 83.7465C9.59025 83.6367 9.51219 83.8318 9.52641 84.1805ZM9.85719 85.5035C9.87306 85.8889 9.95146 85.9673 10.057 85.7037C10.1526 85.4648 10.1407 85.1794 10.0308 85.0696C9.92103 84.9597 9.84296 85.1549 9.85719 85.5035ZM10.1833 86.6612C10.2283 87.6489 11.7545 95.0344 11.7839 94.407C11.8187 93.6604 10.5098 86.5435 10.2984 86.3305C10.2234 86.2547 10.1714 86.4036 10.1833 86.6612ZM21.1908 89.4454C21.1918 90.9008 21.25 91.4551 21.3198 90.6772C21.3899 89.8992 21.3889 88.7084 21.3178 88.031C21.2467 87.3536 21.1895 87.99 21.1908 89.4454ZM22.5364 96.557C22.5364 99.7407 22.586 101.043 22.6469 99.4513C22.7074 97.8596 22.7074 95.2547 22.6469 93.6627C22.586 92.071 22.5364 93.3733 22.5364 96.557ZM31.5036 94.6587C31.1858 96.1736 30.9999 97.7041 31.0902 98.06C31.2106 98.534 31.2648 98.4593 31.2929 97.7799C31.3141 97.2701 31.5688 95.8085 31.8592 94.5317C32.1496 93.2549 32.3187 92.1415 32.2343 92.0575C32.1503 91.9735 31.8215 93.1441 31.5036 94.6587ZM20.8551 94.407C20.8567 95.6804 20.9163 96.1607 20.988 95.4747C21.0595 94.7883 21.0585 93.7464 20.9854 93.1593C20.9123 92.5718 20.8537 93.1335 20.8551 94.407ZM11.9811 100.526C11.9811 103.543 12.082 105.348 12.21 104.627C12.336 103.918 12.4392 102.073 12.4392 100.526C12.4392 98.9799 12.336 97.1348 12.21 96.426C12.082 95.7049 11.9811 97.5096 11.9811 100.526ZM20.8164 101.064C20.778 102.906 20.6728 104.915 20.5822 105.529L20.4181 106.646L20.7591 105.563C20.9467 104.967 21.0522 102.958 20.9933 101.097L20.8862 97.7147L20.8164 101.064ZM31.1328 103.999C31.1332 106.728 31.1845 107.801 31.2466 106.382C31.3088 104.964 31.3085 102.732 31.246 101.421C31.1831 100.11 31.1325 101.271 31.1328 103.999ZM22.283 104.165C22.5447 105.591 22.7329 105.86 22.7262 104.799C22.7233 104.359 22.5748 103.776 22.3958 103.503C22.1669 103.154 22.1335 103.35 22.283 104.165ZM22.9121 106.976C23.0024 107.704 22.85 109.565 22.5734 111.111C22.2969 112.657 22.0931 114.965 22.1209 116.238C22.1705 118.519 22.1749 118.506 22.4074 115.411C22.5374 113.683 22.8228 111.289 23.0421 110.093C23.3289 108.529 23.3435 107.598 23.0944 106.785L22.7477 105.653L22.9121 106.976ZM12.2715 110.119C12.2715 112.211 12.3254 113.067 12.3909 112.021C12.4564 110.974 12.4564 109.263 12.3909 108.217C12.3254 107.171 12.2715 108.027 12.2715 110.119ZM20.1456 107.803C20.1277 108.44 20.3275 110.226 20.5895 111.773L21.0661 114.584L20.8567 112.269C20.7416 110.995 20.5418 109.209 20.4128 108.299C20.2213 106.95 20.1723 106.858 20.1456 107.803ZM30.722 110.119C30.722 110.574 30.7971 110.76 30.8887 110.532C30.9807 110.305 30.9807 109.933 30.8887 109.705C30.7971 109.478 30.722 109.664 30.722 110.119ZM31.066 114.419C31.026 116.147 30.9228 118.156 30.8365 118.884L30.68 120.207L31.0167 118.889C31.202 118.164 31.3052 116.154 31.2463 114.423L31.1391 111.276L31.066 114.419ZM11.9057 115.411C11.9057 116.23 11.9702 116.565 12.0492 116.155C12.1279 115.746 12.1279 115.076 12.0492 114.667C11.9702 114.257 11.9057 114.592 11.9057 115.411ZM21.1607 115.907C21.1643 116.635 21.2321 116.894 21.3112 116.482C21.3903 116.071 21.3873 115.475 21.3046 115.159C21.2219 114.843 21.1571 115.18 21.1607 115.907ZM12.1795 117.919C12.1977 118.45 12.339 119.256 12.4934 119.711C12.683 120.269 12.7124 120 12.5834 118.884C12.3687 117.024 12.1293 116.452 12.1795 117.919ZM20.2921 122.027C19.9514 124.664 19.748 127.12 19.8403 127.484C19.9405 127.879 20.0238 127.65 20.0467 126.915C20.0678 126.239 20.3182 124.115 20.6033 122.196C20.8885 120.277 21.0747 118.374 21.0168 117.969C20.9593 117.562 20.6331 119.389 20.2921 122.027ZM22.461 119.546C22.4487 120.091 22.5619 121.133 22.7124 121.861C23.0726 123.603 23.1033 122.038 22.7481 120.042C22.5496 118.926 22.4775 118.801 22.461 119.546ZM17.8543 121.53C17.8437 122.986 17.9482 124.995 18.0865 125.996L18.3379 127.815L18.3435 125.665C18.3465 124.483 18.242 122.473 18.1113 121.2L17.8738 118.884L17.8543 121.53ZM30.3651 120.896C30.381 121.282 30.4594 121.36 30.5649 121.096C30.6605 120.858 30.6486 120.572 30.5388 120.462C30.429 120.352 30.3509 120.548 30.3651 120.896ZM12.8381 120.893C12.8216 121.088 13.1633 122.435 13.5976 123.886C15.2045 129.255 15.5462 131.44 15.2977 134.756C15.0794 137.667 14.9964 137.933 13.9045 139.209C12.0995 141.317 12.5742 141.694 17.3724 141.965C18.8195 142.047 19.2836 141.986 18.8909 141.766C18.58 141.592 17.3446 141.419 16.1455 141.381C13.1613 141.286 13.1388 141.281 13.1388 140.675C13.1388 140.211 13.2175 140.2 13.7176 140.592C14.2303 140.994 14.2495 140.985 13.8843 140.517C13.5437 140.08 13.5919 139.88 14.1629 139.363C15.2839 138.349 15.4787 137.715 15.6659 134.474C15.8154 131.885 15.7089 130.848 14.9961 127.951C14.0769 124.216 12.8867 120.323 12.8381 120.893ZM29.5451 123.548C29.2253 124.563 29.0232 125.452 29.0959 125.525C29.1687 125.598 29.4899 124.827 29.8098 123.813C30.1296 122.798 30.3317 121.909 30.2589 121.836C30.1862 121.763 29.865 122.534 29.5451 123.548ZM23.1817 128.146C23.1751 130.875 23.054 134.596 22.9125 136.415C22.7712 138.234 22.7358 139.647 22.8344 139.554C22.9326 139.462 23.0984 138.122 23.2019 136.577C23.6789 129.482 23.746 126.69 23.4801 125.003C23.2489 123.534 23.1913 124.139 23.1817 128.146ZM28.7113 126.519C28.7271 126.905 28.8055 126.983 28.911 126.72C29.0066 126.481 28.9947 126.195 28.8849 126.085C28.7751 125.976 28.697 126.171 28.7113 126.519ZM28.2356 128.05C28.1238 128.467 28.0454 129.105 28.0613 129.469C28.0772 129.833 28.2263 129.55 28.3927 128.84C28.7152 127.466 28.5773 126.773 28.2356 128.05ZM19.4718 129.634C19.4506 130.453 19.6514 132.048 19.9183 133.18C20.1849 134.311 20.3156 135.464 20.2087 135.743C20.1019 136.022 20.179 136.25 20.3804 136.25C20.8432 136.25 20.8428 135.453 20.3804 133.786C20.1809 133.068 19.9034 131.505 19.7642 130.313C19.5435 128.43 19.5055 128.341 19.4718 129.634ZM27.8046 134.056C27.966 137.769 28.0246 138.034 28.877 138.923C29.6748 139.756 29.7251 139.932 29.3143 140.455C28.8905 140.995 28.9011 141.006 29.4373 140.585C30.0813 140.08 30.6678 140.353 30.1187 140.902C29.6351 141.386 25.7082 141.649 25.7082 141.198C25.7082 140.992 25.4019 141.058 24.9805 141.353C24.3308 141.808 24.1714 141.809 23.492 141.364C23.0736 141.09 22.7312 141.009 22.7312 141.184C22.7312 141.799 23.491 141.958 26.1593 141.901C30.7971 141.802 31.4219 141.297 29.5164 139.188C28.8773 138.481 28.3474 137.865 28.3388 137.82C28.3302 137.775 28.2442 136.102 28.1476 134.101C28.0507 132.101 27.8956 130.389 27.8026 130.298C27.7097 130.206 27.7107 131.897 27.8046 134.056ZM20.3043 139.138C20.4482 140.37 20.3744 141.037 20.0476 141.453C19.6309 141.985 19.6418 141.997 20.1677 141.584C20.8078 141.082 20.9665 138.759 20.4191 137.904C20.2064 137.571 20.1687 137.978 20.3043 139.138Z" fill="#7B7B7B"/>
</svg>
