<svg width="24" height="24" viewBox="0 0 24 24" fill="none" xmlns="http://www.w3.org/2000/svg">
<g clip-path="url(#clip0_69_2963)">
<path fill-rule="evenodd" clip-rule="evenodd" d="M16.8433 6.54794C15.6043 5.36623 13.9508 4.72247 12.24 4.74893C9.10936 4.74893 6.45055 6.86098 5.50253 9.70498V9.70505C4.99987 11.1954 4.99987 12.8092 5.50253 14.2996H5.50693C6.45934 17.1392 9.11376 19.2512 12.2444 19.2512C13.8604 19.2512 15.2478 18.8379 16.323 18.1078V18.1048C17.5885 17.2671 18.4528 15.9487 18.7217 14.4583H12.24V9.83734H23.5588C23.6999 10.6398 23.766 11.46 23.766 12.2757C23.766 15.9255 22.4616 19.0113 20.1921 21.1013L20.1944 21.1032C18.2058 22.9374 15.4764 24.0001 12.24 24.0001C7.70278 24.0001 3.55359 21.4427 1.51648 17.3905V17.3905C-0.18551 13.9997 -0.185506 10.0049 1.51649 6.61411H1.51652L1.51648 6.61408C3.55359 2.55749 7.70277 7.62441e-05 12.24 7.62441e-05C15.2207 -0.0351984 18.1 1.08477 20.2694 3.12188L16.8433 6.54794Z" fill="white"/>
</g>
<defs>
<clipPath id="clip0_69_2963">
<rect width="24" height="24" fill="white"/>
</clipPath>
</defs>
</svg>
