<svg width="40" height="40" viewBox="0 0 40 40" fill="none" xmlns="http://www.w3.org/2000/svg">
<path fill-rule="evenodd" clip-rule="evenodd" d="M19.6281 22.4412C18.5131 22.4412 17.4015 22.0729 16.4715 21.3362L8.99647 15.3096C8.45813 14.8762 8.3748 14.0879 8.80647 13.5512C9.24147 13.0162 10.0281 12.9312 10.5648 13.3629L18.0331 19.3829C18.9715 20.1262 20.2931 20.1262 21.2381 19.3762L28.6315 13.3662C29.1681 12.9279 29.9548 13.0112 30.3915 13.5479C30.8265 14.0829 30.7448 14.8696 30.2098 15.3062L22.8031 21.3262C21.8665 22.0696 20.7465 22.4412 19.6281 22.4412Z" fill="white"/>
<mask id="mask0_69_2884" style="mask-type:alpha" maskUnits="userSpaceOnUse" x="1" y="3" width="37" height="33">
<path fill-rule="evenodd" clip-rule="evenodd" d="M1.66675 3.33325H37.4999V35.8333H1.66675V3.33325Z" fill="white"/>
</mask>
<g mask="url(#mask0_69_2884)">
<path fill-rule="evenodd" clip-rule="evenodd" d="M11.3982 33.3333H27.7648C27.7682 33.3299 27.7815 33.3333 27.7915 33.3333C29.6932 33.3333 31.3798 32.6533 32.6732 31.3616C34.1748 29.8666 34.9998 27.7183 34.9998 25.3133V13.8666C34.9998 9.21159 31.9565 5.83325 27.7648 5.83325H11.4015C7.20984 5.83325 4.1665 9.21159 4.1665 13.8666V25.3133C4.1665 27.7183 4.99317 29.8666 6.49317 31.3616C7.7865 32.6533 9.47484 33.3333 11.3748 33.3333H11.3982ZM11.3698 35.8333C8.79817 35.8333 6.5015 34.8999 4.72817 33.1332C2.75317 31.1632 1.6665 28.3866 1.6665 25.3133V13.8666C1.6665 7.86159 5.8515 3.33325 11.4015 3.33325H27.7648C33.3148 3.33325 37.4998 7.86159 37.4998 13.8666V25.3133C37.4998 28.3866 36.4132 31.1632 34.4382 33.1332C32.6665 34.8983 30.3682 35.8333 27.7915 35.8333H27.7648H11.4015H11.3698Z" fill="white"/>
</g>
</svg>
