<svg width="24" height="142" viewBox="0 0 24 142" fill="none" xmlns="http://www.w3.org/2000/svg">
<path d="M4.18714 3.55484C5.20009 2.43493 7.02274 1.47345 9.64311 0.677035C11.5775 0.0889607 12.7621 -0.0608034 14.8373 0.0204021C18.1519 0.150198 19.1961 0.787528 20.5148 3.48362C21.3977 5.28877 21.4463 5.6522 21.6621 12.0455C21.8664 18.0993 21.9888 19.11 22.9742 22.8821C23.9139 26.4811 24.0507 27.5135 23.9865 30.5367C23.9455 32.4587 23.9033 35.2669 23.8926 36.7769C23.8737 39.4144 23.8427 39.5225 23.1079 39.5225C22.2423 39.5225 21.2972 40.3243 21.2972 41.0581C21.2972 41.3274 20.7097 43.3762 19.9919 45.6106C19.2743 47.8451 18.618 49.9728 18.5335 50.3389C18.3844 50.9865 18.3795 50.9858 18.3419 50.3182C18.3206 49.9405 18.7524 48.3024 19.3013 46.678C19.8502 45.0535 20.2992 43.6321 20.2992 43.5196C20.2992 43.4071 19.5508 43.1615 18.6359 42.9741C17.0824 42.6556 16.9726 42.6769 16.9726 43.2966C16.9726 43.6614 16.8881 43.8754 16.785 43.7722C16.6816 43.6687 16.7058 43.0074 16.8389 42.3022C16.972 41.597 17.1536 41.2448 17.2428 41.5194C17.4853 42.2652 18.0032 42.5072 19.3715 42.5128C20.5437 42.5175 20.6256 42.4463 20.9888 41.1034C21.6026 38.835 20.8212 31.2712 19.753 29.1409C19.5058 28.648 18.8914 28.019 18.3874 27.7434C17.8838 27.4675 17.0009 26.9896 16.4257 26.6811C15.815 26.3539 15.0505 26.2029 14.5891 26.319C12.5659 26.8269 8.56063 30.2668 6.67311 33.1173C5.53341 34.8389 5.1605 36.3539 5.47021 38.0049C5.84978 40.0288 8.98876 41.9271 8.98876 40.1326C8.98876 39.7362 9.02902 39.474 9.07792 39.5502C9.12715 39.6267 9.08058 42.6094 8.9748 46.1787L8.78252 52.6685L8.71931 47.3892L8.6561 42.1095L7.57496 42.3162C6.98016 42.43 5.85743 42.6163 5.08 42.7302L3.66619 42.9372L3.60465 44.6412L3.5431 46.3451L3.42169 44.6149C3.32754 43.276 3.15788 42.8397 2.67186 42.6856C2.32656 42.5757 1.5854 41.9637 1.02553 41.3254C-0.203322 39.9253 -0.3304 38.1607 0.658269 36.2217C1.42505 34.7181 6.28822 30.1177 6.87337 30.3423C7.09525 30.4275 7.47482 30.2438 7.717 29.9346C8.11753 29.4221 8.09757 29.4131 7.49179 29.8328C6.60891 30.4445 8.78119 28.41 10.9365 26.6069C12.6111 25.2058 12.645 25.1419 12.4358 23.778C12.1594 21.9762 11.167 20.0079 10.3011 19.544C9.7825 19.2664 9.22828 19.309 7.98413 19.7224C7.08495 20.0212 5.9326 20.2179 5.42363 20.1597C4.60063 20.0652 4.49651 19.9174 4.48653 18.8301C4.48054 18.1572 4.58799 17.6763 4.72538 17.7611C4.86277 17.8463 4.88639 18.3592 4.77794 18.9013C4.59498 19.8162 4.65153 19.8868 5.56834 19.8868C6.96019 19.8868 12.3154 17.9036 12.3154 17.3881C12.3154 16.4851 11.1464 12.0195 10.5942 10.8131C9.94383 9.39165 9.698 9.17699 8.21799 8.73735C7.31049 8.46744 6.0537 7.85474 5.42597 7.37582L4.28427 6.50453L4.37875 8.82255C4.45792 10.7565 4.33783 11.3992 3.65388 12.7031C2.88943 14.1615 2.87346 14.2879 3.41669 14.5968C3.73671 14.7788 3.98155 15.2574 3.96026 15.6601C3.925 16.3274 3.90703 16.3341 3.75501 15.735C3.66353 15.3736 3.34418 14.899 3.04578 14.6807C2.55211 14.3192 2.58271 14.1209 3.38409 12.4861C4.24169 10.7369 4.25233 10.64 3.78062 8.88112C3.19747 6.70588 3.36879 4.45941 4.18714 3.55484Z" fill="#7B7B7B"/>
<path d="M6.26393 11.2288C5.7716 11.2314 5.27627 11.084 5.16316 10.9009C4.90069 10.4759 6.0028 10.4759 6.66014 10.9009C7.05035 11.1532 6.96419 11.2248 6.26393 11.2288Z" fill="#7B7B7B"/>
<path d="M9.55063 38.7737C9.46713 39.0942 9.3986 38.832 9.3986 38.1913C9.3986 37.5507 9.46713 37.2884 9.55063 37.6089C9.63446 37.9294 9.63446 38.4532 9.55063 38.7737Z" fill="#7B7B7B"/>
<path d="M17.3751 40.4677C17.3219 40.1935 17.4304 39.5691 17.6163 39.0802C18.1286 37.732 18.2574 38.0169 17.8412 39.5785C17.638 40.3416 17.428 40.7416 17.3751 40.4677Z" fill="#7B7B7B"/>
<path d="M16.5345 45.2429C16.4284 45.5081 16.3496 45.4292 16.3336 45.0415C16.3193 44.6907 16.3978 44.4944 16.5082 44.6049C16.6187 44.7154 16.6307 45.0026 16.5345 45.2429Z" fill="#7B7B7B"/>
<path d="M16.1949 46.9276C16.1027 47.1565 16.0272 46.9692 16.0272 46.5115C16.0272 46.0539 16.1027 45.8669 16.1949 46.0955C16.2873 46.3245 16.2873 46.6989 16.1949 46.9276Z" fill="#7B7B7B"/>
<path d="M4.00617 53.8334C3.86712 52.4605 3.73372 50.2264 3.70977 48.8688C3.63359 44.5563 3.91103 46.4853 4.08834 51.5037C4.20111 54.6903 4.17316 55.4814 4.00617 53.8334Z" fill="#7B7B7B"/>
<path d="M15.8622 48.5916C15.7701 48.8206 15.6945 48.6332 15.6945 48.1756C15.6945 47.718 15.7701 47.5309 15.8622 47.7596C15.9547 47.9886 15.9547 48.363 15.8622 48.5916Z" fill="#7B7B7B"/>
<path d="M15.5365 49.9022C15.4304 50.1675 15.3516 50.0886 15.3356 49.7009C15.3213 49.3501 15.3998 49.1537 15.5103 49.2642C15.6207 49.3747 15.6327 49.6619 15.5365 49.9022Z" fill="#7B7B7B"/>
<path d="M14.7851 53.3901C14.8905 53.0549 15.0006 52.3061 15.0299 51.726L15.0831 50.6717L15.2168 51.746C15.2904 52.337 15.1803 53.0859 14.972 53.41C14.6151 53.9665 14.6048 53.9655 14.7851 53.3901Z" fill="#7B7B7B"/>
<path d="M18.2111 54.2494C18.1376 54.8441 18.0771 54.3575 18.0771 53.1677C18.0771 51.9779 18.1376 51.4914 18.2111 52.0861C18.285 52.6808 18.285 53.6546 18.2111 54.2494Z" fill="#7B7B7B"/>
<path d="M8.55065 53.5631C8.44454 53.8284 8.36569 53.7495 8.34973 53.3618C8.33542 53.011 8.41393 52.8146 8.52437 52.9251C8.63481 53.0356 8.64679 53.3228 8.55065 53.5631Z" fill="#7B7B7B"/>
<path d="M8.211 55.5806C8.11885 55.8096 8.04334 55.6222 8.04334 55.1646C8.04334 54.707 8.11885 54.5199 8.211 54.7486C8.30348 54.9776 8.30348 55.352 8.211 55.5806Z" fill="#7B7B7B"/>
<path d="M14.2092 56.7391C14.1247 57.0629 14.0502 56.8786 14.0436 56.3294C14.0369 55.7803 14.1058 55.5154 14.1969 55.7407C14.2881 55.966 14.2937 56.4153 14.2092 56.7391Z" fill="#7B7B7B"/>
<path d="M18.8129 58.7007C18.6965 58.3116 18.5385 57.3944 18.4613 56.6622L18.3216 55.331L18.6163 56.6792C18.7787 57.4207 19.4663 59.4425 20.1449 61.1721C22.1718 66.34 22.0783 69.4451 19.7956 72.7649C18.9074 74.0569 18.6236 74.8233 18.5837 76.0404L18.5315 77.6292L18.3252 75.9652C18.1413 74.4805 18.2148 74.1936 19.0055 73.3027C21.8664 70.0808 21.8152 65.8478 18.8904 63.7607C18.0075 63.1307 17.3788 62.9856 15.5295 62.9856C13.5399 62.9856 13.1746 63.0841 12.6188 63.7714C12.2688 64.2034 11.9884 64.5029 11.9957 64.437C12.0739 63.7091 13.6151 59.153 13.6281 59.6099C13.639 59.9823 13.8213 60.1607 14.0871 60.0586C14.3296 59.9654 15.5399 59.781 16.7764 59.6485C18.8665 59.4246 19.0095 59.358 18.8129 58.7007Z" fill="#7B7B7B"/>
<path d="M7.87834 57.2447C7.78619 57.4736 7.71068 57.2863 7.71068 56.8286C7.71068 56.371 7.78619 56.184 7.87834 56.4126C7.97082 56.6416 7.97082 57.016 7.87834 57.2447Z" fill="#7B7B7B"/>
<path d="M13.8662 58.5759C13.7741 58.8049 13.6986 58.6175 13.6986 58.1599C13.6986 57.7023 13.7741 57.5152 13.8662 57.7439C13.9587 57.9728 13.9587 58.3472 13.8662 58.5759Z" fill="#7B7B7B"/>
<path d="M7.55599 59.4016C7.4715 59.7254 7.39698 59.541 7.39033 58.9919C7.38368 58.4428 7.45254 58.1779 7.54369 58.4032C7.63484 58.6285 7.64049 59.0778 7.55599 59.4016Z" fill="#7B7B7B"/>
<path d="M4.33151 71.1394C4.1216 71.1394 4.01548 69.1449 4.04409 65.7313C4.06904 62.757 4.1542 60.6599 4.23371 61.072C4.39372 61.904 4.66982 61.9636 6.25529 61.5086L7.34276 61.1968L7.15347 62.923C6.73199 66.7637 6.60857 67.4785 6.36606 67.4785C6.07299 67.4785 4.66417 70.1949 4.66417 70.76C4.66417 70.9687 4.51447 71.1394 4.33151 71.1394Z" fill="#7B7B7B"/>
<path d="M11.7911 62.7087C11.8966 62.3736 11.9947 61.9243 12.009 61.7103C12.028 61.4297 12.0808 61.4337 12.1989 61.7249C12.2888 61.9469 12.191 62.3962 11.9811 62.7234C11.6188 63.2891 11.6091 63.2881 11.7911 62.7087Z" fill="#7B7B7B"/>
<path d="M11.6906 65.7063C11.2984 66.3809 11.204 66.1649 11.525 65.3283C11.6387 65.0307 11.8024 64.8573 11.8879 64.9432C11.9737 65.0287 11.8849 65.3722 11.6906 65.7063Z" fill="#7B7B7B"/>
<path d="M11.0253 67.3704C10.6331 68.045 10.5386 67.829 10.8596 66.9923C10.9734 66.6948 11.1371 66.5214 11.2226 66.6072C11.3084 66.6928 11.2196 67.0362 11.0253 67.3704Z" fill="#7B7B7B"/>
<path d="M6.55668 69.3922C6.47318 69.7127 6.40465 69.4504 6.40465 68.8098C6.40465 68.1691 6.47318 67.9069 6.55668 68.2274C6.64051 68.5479 6.64051 69.0717 6.55668 69.3922Z" fill="#7B7B7B"/>
<path d="M6.22402 72.0547C6.14052 72.3752 6.07199 72.1129 6.07199 71.4723C6.07199 70.8316 6.14052 70.5693 6.22402 70.8898C6.30785 71.2103 6.30785 71.7342 6.22402 72.0547Z" fill="#7B7B7B"/>
<path d="M4.95957 82.641C4.8651 85.1178 4.03744 78.5328 4.01914 75.1608C4.00816 73.0711 4.06439 71.4267 4.14423 71.5069C4.2244 71.5867 4.3375 73.5214 4.39571 75.8058C4.4852 79.3296 4.61594 80.1859 5.25664 81.4565C5.67214 82.2802 5.78358 82.6633 5.50447 82.3082C5.01746 81.6882 4.99517 81.7018 4.95957 82.641Z" fill="#7B7B7B"/>
<path d="M5.37008 74.6922C4.97787 75.3668 4.88339 75.1508 5.20441 74.3141C5.31818 74.0166 5.48185 73.8432 5.56734 73.9291C5.65317 74.0146 5.56435 74.358 5.37008 74.6922Z" fill="#7B7B7B"/>
<path d="M9.54164 75.882C9.4495 76.111 9.37398 75.9236 9.37398 75.466C9.37398 75.0084 9.4495 74.8213 9.54164 75.05C9.63412 75.2789 9.63412 75.6533 9.54164 75.882Z" fill="#7B7B7B"/>
<path d="M9.21598 77.1926C9.10986 77.4578 9.03102 77.379 9.01505 76.9912C9.00074 76.6404 9.07925 76.4441 9.18969 76.5546C9.30014 76.6651 9.31212 76.9523 9.21598 77.1926Z" fill="#7B7B7B"/>
<path d="M9.14179 80.5416C8.87466 79.902 8.6734 78.9848 8.69436 78.5039C8.72629 77.7763 8.77187 77.8252 8.96548 78.7941C9.09355 79.4347 9.38963 80.312 9.62315 80.7433C9.92621 81.3024 9.94484 81.6143 9.68769 81.8279C9.48942 81.9927 9.39461 82.0326 9.47744 81.9162C9.55994 81.8 9.40925 81.1813 9.14179 80.5416Z" fill="#7B7B7B"/>
<path d="M18.8841 88.5287C18.8249 90.4048 18.7763 88.8699 18.7763 85.1174C18.7763 81.365 18.8249 79.8301 18.8841 81.7061C18.9433 83.5822 18.9433 86.6527 18.8841 88.5287Z" fill="#7B7B7B"/>
<path d="M8.56994 82.039C8.47979 81.6269 8.16077 80.7287 7.86137 80.0421C7.19239 78.5095 7.40363 78.394 8.16543 79.8757C8.91757 81.3387 9.33506 82.7878 9.0044 82.7878C8.85537 82.7878 8.66009 82.451 8.56994 82.039Z" fill="#7B7B7B"/>
<path d="M6.87271 83.0191C6.6628 83.2291 5.32417 80.6322 5.34513 80.0554C5.35344 79.8191 5.738 80.3523 6.1994 81.2395C6.66113 82.1268 6.96386 82.9276 6.87271 83.0191Z" fill="#7B7B7B"/>
<path d="M7.82445 82.6357C7.5184 82.649 6.67677 80.715 6.66513 79.9719C6.66247 79.7958 6.96752 80.2451 7.34309 80.9703C8.22797 82.6776 8.211 82.619 7.82445 82.6357Z" fill="#7B7B7B"/>
<path d="M7.32746 93.1049C6.14418 89.2077 4.98652 84.6582 5.02711 84.0634C5.04374 83.8195 5.4732 85.1923 5.98184 87.1143C7.54867 93.0343 9.34738 99.2329 9.67472 99.8396C10.0629 100.559 10.0673 100.759 9.69467 100.759C9.53367 100.759 9.15143 99.7484 8.84472 98.513C8.538 97.2776 7.85539 94.8438 7.32746 93.1049Z" fill="#7B7B7B"/>
<path d="M17.8835 91.1799C17.8163 92.147 17.7604 91.4408 17.7594 89.6104C17.7587 87.7799 17.8136 86.9885 17.8821 87.8518C17.9503 88.7154 17.951 90.2131 17.8835 91.1799Z" fill="#7B7B7B"/>
<path d="M19.4307 102.257C18.8109 100.276 18.5677 98.6578 18.4806 95.9337L18.3635 92.2728L18.6107 95.7673C18.751 97.7522 19.1692 100.247 19.5787 101.543C19.9749 102.798 20.2913 104.071 20.2813 104.372C20.2716 104.673 19.8887 103.721 19.4307 102.257Z" fill="#7B7B7B"/>
<path d="M10.527 104.42C10.0506 103.414 9.67438 102.216 9.69135 101.758C9.71696 101.069 9.76753 101.118 9.98575 102.042C10.346 103.566 11.356 105.752 11.7006 105.752C11.8556 105.752 11.9697 106.238 11.9541 106.833C11.9272 107.856 11.9112 107.87 11.6594 107.083C11.513 106.625 11.0034 105.427 10.527 104.42Z" fill="#7B7B7B"/>
<path d="M20.9965 109.745C20.8488 108.739 20.6346 107.241 20.5205 106.417C20.3452 105.152 20.3634 105.075 20.6386 105.918C20.8175 106.467 21.0318 107.965 21.1146 109.246C21.2563 111.441 21.2497 111.47 20.9965 109.745Z" fill="#7B7B7B"/>
<path d="M12.2232 111.493C12.1497 112.088 12.0892 111.601 12.0892 110.411C12.0892 109.221 12.1497 108.734 12.2232 109.329C12.2971 109.924 12.2971 110.898 12.2232 111.493Z" fill="#7B7B7B"/>
<path d="M21.0933 121.966C21.0185 121.892 21.0714 119.598 21.2104 116.869C21.3498 114.141 21.5145 112.508 21.5767 113.24C21.7067 114.772 21.2969 122.17 21.0933 121.966Z" fill="#7B7B7B"/>
<path d="M13.147 121.061C12.6933 118.407 12.3466 115.486 12.3766 114.571L12.4315 112.907L12.5439 114.405C12.6058 115.228 13.0389 118.243 13.5063 121.103C13.9737 123.964 14.2964 126.884 14.2235 127.593L14.0905 128.882L14.0312 127.384C13.999 126.561 13.6008 123.715 13.147 121.061Z" fill="#7B7B7B"/>
<path d="M20.8611 123.973C20.7776 124.293 20.7091 124.031 20.7091 123.391C20.7091 122.75 20.7776 122.488 20.8611 122.808C20.9449 123.128 20.9449 123.653 20.8611 123.973Z" fill="#7B7B7B"/>
<path d="M20.5298 125.963C20.4453 126.287 20.3708 126.103 20.3641 125.554C20.3575 125.005 20.4263 124.74 20.5175 124.965C20.6086 125.19 20.6143 125.64 20.5298 125.963Z" fill="#7B7B7B"/>
<path d="M20.1971 127.96C20.1126 128.284 20.0381 128.1 20.0315 127.551C20.0248 127.002 20.0937 126.737 20.1848 126.962C20.276 127.187 20.2816 127.637 20.1971 127.96Z" fill="#7B7B7B"/>
<path d="M19.8029 136.204C19.27 134.39 19.1852 132.651 19.5128 130.26C19.6293 129.41 19.7617 128.715 19.8072 128.715C19.8528 128.715 19.8698 130.176 19.8452 131.96C19.8205 133.745 19.911 135.804 20.0461 136.536C20.244 137.608 20.1968 137.543 19.8029 136.204Z" fill="#7B7B7B"/>
<path d="M14.5542 132.286C14.482 132.976 14.4221 132.493 14.4205 131.212C14.4191 129.93 14.478 129.365 14.5515 129.956C14.625 130.547 14.626 131.595 14.5542 132.286Z" fill="#7B7B7B"/>
<path d="M3.57969 139.274C11.1032 136.094 13.7688 134.807 13.9038 134.291C14.0915 133.573 14.1843 133.562 14.4394 134.227C14.5904 134.621 14.0149 135.034 12.0632 135.935C8.34307 137.651 2.56475 140.038 2.43767 139.911C2.37779 139.851 2.89175 139.564 3.57969 139.274Z" fill="#7B7B7B"/>
<path d="M18.8631 135.101C18.757 135.367 18.6782 135.288 18.6622 134.9C18.6479 134.549 18.7264 134.353 18.8369 134.463C18.9473 134.574 18.9593 134.861 18.8631 135.101Z" fill="#7B7B7B"/>
<path d="M16.0342 141.409C19.7138 141.356 20.272 141.055 20.3445 139.092C20.3754 138.253 20.4366 138.114 20.5384 138.65C20.7517 139.773 20.3841 140.961 19.7131 141.317C18.8029 141.8 3.32455 142.253 1.95033 141.836C1.2188 141.615 0.883815 140.676 1.37549 140.225C1.66823 139.956 1.71646 140.011 1.5651 140.442C1.21281 141.445 2.3525 141.652 7.67608 141.553C10.502 141.5 14.2631 141.435 16.0342 141.409Z" fill="#7B7B7B"/>
</svg>
